REM DIRINDEX 1\2,1\3,1\4,1\5
REM DIRNAME folder01,folder02,folder03,folder04,folder05
TITLE ""
FILE "1800_117.mp3" MP3
  TRACK 01 AUDIO
    TITLE "2:cjc044_3357"
    INDEX 01 00:00:00
  TRACK 02 AUDIO
    TITLE "0:"
    INDEX 01 00:00:70
  TRACK 03 AUDIO
    TITLE "3:cjc044_3358"
    INDEX 01 00:01:62
  TRACK 04 AUDIO
    TITLE "0:"
    INDEX 01 00:02:63
  TRACK 05 AUDIO
    TITLE "4:cjc044_3359"
    INDEX 01 00:03:47
  TRACK 06 AUDIO
    TITLE "0:"
    INDEX 01 00:04:50
  TRACK 07 AUDIO
    TITLE "5:cjc044_3360"
    INDEX 01 00:05:46
  TRACK 08 AUDIO
    TITLE "0:"
    INDEX 01 00:09:06
  TRACK 09 AUDIO
    TITLE "2:cjc044_3361"
    INDEX 01 00:10:66
  TRACK 10 AUDIO
    TITLE "0:"
    INDEX 01 00:12:01
  TRACK 11 AUDIO
    TITLE "3:cjc044_3362"
    INDEX 01 00:12:60
  TRACK 12 AUDIO
    TITLE "0:"
    INDEX 01 00:14:62
  TRACK 13 AUDIO
    TITLE "4:cjc044_3363"
    INDEX 01 00:15:48
  TRACK 14 AUDIO
    TITLE "0:"
    INDEX 01 00:16:57
  TRACK 15 AUDIO
    TITLE "5:cjc044_3364"
    INDEX 01 00:17:43
  TRACK 16 AUDIO
    TITLE "0:"
    INDEX 01 00:20:63
  TRACK 17 AUDIO
    TITLE "2:cjc044_3365"
    INDEX 01 00:22:46
  TRACK 18 AUDIO
    TITLE "0:"
    INDEX 01 00:23:65
  TRACK 19 AUDIO
    TITLE "3:cjc044_3366"
    INDEX 01 00:24:51
  TRACK 20 AUDIO
    TITLE "0:"
    INDEX 01 00:26:36
  TRACK 21 AUDIO
    TITLE "4:cjc044_3367"
    INDEX 01 00:27:22
  TRACK 22 AUDIO
    TITLE "0:"
    INDEX 01 00:28:43
  TRACK 23 AUDIO
    TITLE "5:cjc044_3368"
    INDEX 01 00:29:27
  TRACK 24 AUDIO
    TITLE "0:"
    INDEX 01 00:32:31
  TRACK 25 AUDIO
    TITLE "2:cjc044_3369"
    INDEX 01 00:34:14
  TRACK 26 AUDIO
    TITLE "0:"
    INDEX 01 00:35:23
  TRACK 27 AUDIO
    TITLE "3:cjc044_3370"
    INDEX 01 00:36:07
  TRACK 28 AUDIO
    TITLE "0:"
    INDEX 01 00:38:20
  TRACK 29 AUDIO
    TITLE "4:cjc044_3371"
    INDEX 01 00:38:73
  TRACK 30 AUDIO
    TITLE "0:"
    INDEX 01 00:40:01
  TRACK 31 AUDIO
    TITLE "5:cjc044_3372"
    INDEX 01 00:40:54
  TRACK 32 AUDIO
    TITLE "0:"
    INDEX 01 00:44:12
  TRACK 33 AUDIO
    TITLE "2:cjc044_3373"
    INDEX 01 00:45:73
  TRACK 34 AUDIO
    TITLE "0:"
    INDEX 01 00:47:13
  TRACK 35 AUDIO
    TITLE "3:cjc044_3374"
    INDEX 01 00:47:72
  TRACK 36 AUDIO
    TITLE "0:"
    INDEX 01 00:49:12
  TRACK 37 AUDIO
    TITLE "4:cjc044_3375"
    INDEX 01 00:49:69
  TRACK 38 AUDIO
    TITLE "0:"
    INDEX 01 00:51:07
  TRACK 39 AUDIO
    TITLE "5:cjc044_3376"
    INDEX 01 00:51:67
  TRACK 40 AUDIO
    TITLE "0:"
    INDEX 01 00:55:44
  TRACK 41 AUDIO
    TITLE "2:cjc044_3377"
    INDEX 01 00:57:33
  TRACK 42 AUDIO
    TITLE "0:"
    INDEX 01 00:58:40
  TRACK 43 AUDIO
    TITLE "3:cjc044_3378"
    INDEX 01 00:59:24
  TRACK 44 AUDIO
    TITLE "0:"
    INDEX 01 01:00:39
  TRACK 45 AUDIO
    TITLE "4:cjc044_3379"
    INDEX 01 01:01:21
  TRACK 46 AUDIO
    TITLE "0:"
    INDEX 01 01:02:28
  TRACK 47 AUDIO
    TITLE "5:cjc044_3380"
    INDEX 01 01:03:00
  TRACK 48 AUDIO
    TITLE "0:"
    INDEX 01 01:06:30
  TRACK 49 AUDIO
    TITLE "2:cjc044_3381"
    INDEX 01 01:08:21
  TRACK 50 AUDIO
    TITLE "0:"
    INDEX 01 01:09:36
  TRACK 51 AUDIO
    TITLE "3:cjc044_3382"
    INDEX 01 01:10:16
  TRACK 52 AUDIO
    TITLE "0:"
    INDEX 01 01:12:07
  TRACK 53 AUDIO
    TITLE "4:cjc044_3383"
    INDEX 01 01:12:62
  TRACK 54 AUDIO
    TITLE "0:"
    INDEX 01 01:14:00
  TRACK 55 AUDIO
    TITLE "5:cjc044_3384"
    INDEX 01 01:14:49
  TRACK 56 AUDIO
    TITLE "0:"
    INDEX 01 01:18:17
  TRACK 57 AUDIO
    TITLE "2:cjc044_3385"
    INDEX 01 01:20:06
  TRACK 58 AUDIO
    TITLE "0:"
    INDEX 01 01:21:14
  TRACK 59 AUDIO
    TITLE "3:cjc044_3386"
    INDEX 01 01:22:01
  TRACK 60 AUDIO
    TITLE "0:"
    INDEX 01 01:22:68
  TRACK 61 AUDIO
    TITLE "4:cjc044_3387"
    INDEX 01 01:23:58
  TRACK 62 AUDIO
    TITLE "0:"
    INDEX 01 01:24:67
  TRACK 63 AUDIO
    TITLE "5:cjc044_3388"
    INDEX 01 01:25:55
  TRACK 64 AUDIO
    TITLE "0:"
    INDEX 01 01:29:09
  TRACK 65 AUDIO
    TITLE "2:cjc044_3389"
    INDEX 01 01:30:69
  TRACK 66 AUDIO
    TITLE "0:"
    INDEX 01 01:32:06
  TRACK 67 AUDIO
    TITLE "3:cjc044_3390"
    INDEX 01 01:32:62
  TRACK 68 AUDIO
    TITLE "0:"
    INDEX 01 01:33:74
  TRACK 69 AUDIO
    TITLE "4:cjc044_3391"
    INDEX 01 01:34:59
  TRACK 70 AUDIO
    TITLE "0:"
    INDEX 01 01:35:71
  TRACK 71 AUDIO
    TITLE "5:cjc044_3392"
    INDEX 01 01:36:54
  TRACK 72 AUDIO
    TITLE "0:"
    INDEX 01 01:39:70
  TRACK 73 AUDIO
    TITLE "2:cjc044_3393"
    INDEX 01 01:41:59
  TRACK 74 AUDIO
    TITLE "0:"
    INDEX 01 01:42:65
  TRACK 75 AUDIO
    TITLE "3:cjc044_3394"
    INDEX 01 01:43:56
  TRACK 76 AUDIO
    TITLE "0:"
    INDEX 01 01:45:45
  TRACK 77 AUDIO
    TITLE "4:cjc044_3395"
    INDEX 01 01:46:35
  TRACK 78 AUDIO
    TITLE "0:"
    INDEX 01 01:47:42
  TRACK 79 AUDIO
    TITLE "5:cjc044_3396"
    INDEX 01 01:48:26
  TRACK 80 AUDIO
    TITLE "0:"
    INDEX 01 01:51:05
